<svg xmlns="http://www.w3.org/2000/svg" version="1.1" xmlns:xlink="http://www.w3.org/1999/xlink" xmlns:svgjs="http://svgjs.dev/svgjs" width="2000" height="1500" viewBox="0 0 2000 1500"><rect width="2000" height="1500" fill="none"></rect><g transform="matrix(0.75,0,0,0.75,249.090909090909,282.75364372469653)"><svg viewBox="0 0 396 247" data-background-color="#ffffff" preserveAspectRatio="xMidYMid meet" height="1247" width="2000" xmlns="http://www.w3.org/2000/svg" xmlns:xlink="http://www.w3.org/1999/xlink"><g id="tight-bounds" transform="matrix(1,0,0,1,0.2400000000000091,-0.09999999999999432)"><svg viewBox="0 0 395.52 247.2" height="247.2" width="395.52"><g><svg></svg></g><g><svg viewBox="0 0 395.52 247.2" height="247.2" width="395.52"><mask id="921efd52-e5e0-4cc6-a3a9-6accf8d06c74"><rect width="395.52" height="247.2" fill="white"></rect><g transform="matrix(1,0,0,1,66.53799999999998,37.08)" id="clone"><svg viewBox="0 0 262.444 173.04" height="173.04" width="262.444"><g><svg viewBox="0 0 262.444 173.04" height="173.04" width="262.444"><g><svg viewBox="0 0 262.444 173.04" height="173.04" width="262.444"><g><svg viewBox="0 0 262.444 173.04" height="173.04" width="262.444"><g id="SvgjsG1460"><svg viewBox="0 0 262.444 173.04" height="173.04" width="262.444" id="SvgjsSvg1459"><g><svg viewBox="0 0 262.444 173.04" height="173.04" width="262.444"><g transform="matrix(1,0,0,1,0,0)"><svg width="262.444" viewBox="-3.05 -30.25 51.05 34" height="173.04" data-palette-color="#ff0000"><path d="M2.2 0.45L2.2 0.45Q1.05 0.2 0.68-0.53 0.3-1.25 0.3-2.1L0.3-2.1Q0.3-3.2 1-4.38 1.7-5.55 2.25-6.15L2.25-6.15Q1.15-6.2 0.55-6.83-0.05-7.45-0.05-7.9L-0.05-7.9Q-0.05-8.25 0.25-8.25L0.25-8.25Q0.5-8.25 0.7-8.1L0.7-8.1Q1.7-7.65 3.15-7.65L3.15-7.65Q3.75-8.55 5.13-10.33 6.5-12.1 8.33-14.33 10.15-16.55 12.18-18.8 14.2-21.05 16.18-22.98 18.15-24.9 19.83-26.08 21.5-27.25 22.55-27.25L22.55-27.25Q23.55-27.25 24.33-26.65 25.1-26.05 25.58-25.45 26.05-24.85 26.05-24.85L26.05-24.85Q25.1-23.5 23.9-20.88 22.7-18.25 21.63-15.05 20.55-11.85 19.8-8.8L19.8-8.8Q20.55-8.8 21.18-8.15 21.8-7.5 21.8-6.8L21.8-6.8Q21.8-6.8 21.05-7.15 20.3-7.5 19.45-7.4L19.45-7.4Q19.3-6.85 19.07-5.73 18.85-4.6 18.65-3.33 18.45-2.05 18.45-1L18.45-1Q18.45-0.65 18.48-0.38 18.5-0.1 18.55 0.15L18.55 0.15Q17.45 0.4 16.98-0.7 16.5-1.8 16.5-3.35L16.5-3.35Q16.5-5.6 17.15-7.45L17.15-7.45Q12.3-7.25 9.43-6.65 6.55-6.05 5.4-5.6L5.4-5.6Q4.4-4.2 3.5-2.48 2.6-0.75 2.2 0.45ZM6.8-7.8L6.8-7.8Q8.45-8.1 10.58-8.38 12.7-8.65 14.6-8.85 16.5-9.05 17.55-9L17.55-9Q17.75-9.7 18.25-11.43 18.75-13.15 19.53-15.45 20.3-17.75 21.4-20.3 22.5-22.85 23.9-25.2L23.9-25.2Q23.75-25.45 23.4-25.45L23.4-25.45Q22.65-25.45 21.33-24.43 20-23.4 18.32-21.75 16.65-20.1 14.88-18.1 13.1-16.1 11.48-14.1 9.85-12.1 8.63-10.45 7.4-8.8 6.8-7.8ZM33.3 0.75L33.3 0.75Q31.05 0.75 29.35-0.08 27.65-0.9 26.45-2.02 25.25-3.15 24.42-4.03 23.6-4.9 23.15-4.95L23.15-4.95Q23.35-5.6 23.72-5.95 24.1-6.3 24.85-6.3L24.85-6.3Q25.8-6.3 26.47-5.65 27.15-5 28.15-3.85L28.15-3.85Q29.55-2.35 30.92-1.48 32.3-0.6 34.15-0.6L34.15-0.6Q35.3-0.6 36.37-1.28 37.45-1.95 37.45-3.2L37.45-3.2Q37.45-4.4 36.52-5.3 35.6-6.2 34.22-7.05 32.85-7.9 31.47-8.88 30.1-9.85 29.17-11.2 28.25-12.55 28.25-14.5L28.25-14.5Q28.25-17 29.42-19.23 30.6-21.45 32.5-23.15 34.4-24.85 36.65-25.8 38.9-26.75 41.05-26.75L41.05-26.75Q42.95-26.75 43.97-25.35 45-23.95 45-21.85L45-21.85Q45-20.95 44.47-19.95 43.95-18.95 43.22-17.9 42.5-16.85 41.97-15.78 41.45-14.7 41.45-13.65L41.45-13.65Q40.7-13.65 40.22-14.33 39.75-15 39.75-15.8L39.75-15.8Q39.75-16.95 40.27-17.93 40.8-18.9 41.5-19.8 42.2-20.7 42.72-21.6 43.25-22.5 43.25-23.55L43.25-23.55Q43.25-23.75 42.97-24.4 42.7-25.05 41.6-25.05L41.6-25.05Q40.1-25.05 38.3-24.05 36.5-23.05 34.85-21.48 33.2-19.9 32.15-18.13 31.1-16.35 31.1-14.85L31.1-14.85Q31.1-13.4 32-12.3 32.9-11.2 34.22-10.33 35.55-9.45 36.85-8.6 38.15-7.75 39.05-6.75 39.95-5.75 39.95-4.4L39.95-4.4Q39.95-2.65 39-1.5 38.05-0.35 36.55 0.2 35.05 0.75 33.3 0.75Z" opacity="1" transform="matrix(1,0,0,1,0,0)" fill="black" class="wordmark-text-0" id="SvgjsPath1458" stroke-width="5" stroke="black" stroke-linejoin="round"></path></svg></g></svg></g></svg></g></svg></g></svg></g></svg></g></svg></g></mask><g mask="url(#921efd52-e5e0-4cc6-a3a9-6accf8d06c74)"><g><path d="M101.379 247.2v0c-6.842-1.487-11.363-4.403-13.565-8.746-2.261-4.284-3.391-8.954-3.391-14.011v0c0-6.544 2.082-13.327 6.247-20.347 4.165-6.961 7.883-12.226 11.155-15.796v0c-6.544-0.297-11.601-2.32-15.171-6.068-3.57-3.689-5.355-6.872-5.355-9.549v0c0-2.082 0.892-3.123 2.678-3.123v0c1.487 0 2.826 0.446 4.015 1.338v0c5.949 2.677 13.238 4.016 21.865 4.016v0c3.57-5.355 9.46-13.327 17.67-23.917 8.151-10.531 17.67-22.429 28.557-35.696 10.828-13.208 22.281-26.505 34.358-39.892 12.018-13.386 23.917-25.821 35.697-37.303 11.72-11.423 22.578-20.645 32.573-27.665 9.936-6.961 18.027-10.441 24.274-10.441v0c5.949 0 11.244 1.785 15.885 5.355 4.581 3.57 8.299 7.139 11.155 10.709 2.796 3.57 4.194 5.355 4.195 5.354v0c-5.652 8.032-12.048 19.841-19.187 35.429-7.139 15.647-13.892 32.99-20.258 52.028-6.425 19.038-11.869 37.63-16.332 55.776v0c4.462 0 8.567 1.934 12.316 5.801 3.689 3.867 5.533 7.883 5.533 12.048v0c0 0-2.231-1.041-6.693-3.124-4.462-2.082-9.222-2.826-14.279-2.231v0c-0.892 3.272-2.023 8.24-3.391 14.904-1.309 6.723-2.558 13.862-3.748 21.418-1.19 7.615-1.785 14.546-1.785 20.793v0c0 2.082 0.089 3.927 0.268 5.533 0.119 1.666 0.327 3.242 0.624 4.73v0c-6.544 1.487-11.215-1.041-14.011-7.586-2.856-6.544-4.284-14.427-4.283-23.649v0c0-13.386 1.934-25.583 5.8-36.589v0c-28.855 1.19-51.82 3.57-68.894 7.139-17.134 3.57-29.123 6.693-35.965 9.371v0c-5.949 8.329-11.601 17.61-16.956 27.843-5.355 10.293-9.222 19.009-11.601 26.148zM142.43 173.575v0c9.817-1.785 21.061-3.51 33.733-5.176 12.613-1.606 24.571-3.004 35.876-4.194 11.304-1.19 20.079-1.636 26.326-1.339v0c1.19-4.165 3.272-11.393 6.247-21.685 2.975-10.233 6.782-22.191 11.423-35.876 4.581-13.684 10.144-28.111 16.688-43.282 6.544-15.171 13.981-29.747 22.311-43.728v0c-0.892-1.487-2.38-2.231-4.462-2.231v0c-4.462 0-10.62 3.034-18.474 9.102-7.913 6.128-16.867 14.1-26.861 23.917-9.936 9.817-20.169 20.674-30.7 32.573-10.59 11.899-20.704 23.798-30.342 35.697-9.698 11.899-18.176 22.757-25.434 32.573-7.318 9.817-12.762 17.7-16.331 23.649z" fill="#000000" fill-rule="nonzero" stroke="none" stroke-width="1" stroke-linecap="butt" stroke-linejoin="miter" stroke-miterlimit="10" stroke-dasharray="" stroke-dashoffset="0" font-family="none" font-weight="none" font-size="none" text-anchor="none" style="mix-blend-mode: normal" data-fill-palette-color="tertiary"></path></g></g><g transform="matrix(1,0,0,1,66.53799999999998,37.08)"><svg viewBox="0 0 262.444 173.04" height="173.04" width="262.444"><g><svg viewBox="0 0 262.444 173.04" height="173.04" width="262.444"><g><svg viewBox="0 0 262.444 173.04" height="173.04" width="262.444"><g><svg viewBox="0 0 262.444 173.04" height="173.04" width="262.444"><g id="textblocktransform"><svg viewBox="0 0 262.444 173.04" height="173.04" width="262.444" id="textblock"><g><svg viewBox="0 0 262.444 173.04" height="173.04" width="262.444"><g transform="matrix(1,0,0,1,0,0)"><svg width="262.444" viewBox="-3.05 -30.25 51.05 34" height="173.04" data-palette-color="#ff0000"><path d="M2.2 0.45L2.2 0.45Q1.05 0.2 0.68-0.53 0.3-1.25 0.3-2.1L0.3-2.1Q0.3-3.2 1-4.38 1.7-5.55 2.25-6.15L2.25-6.15Q1.15-6.2 0.55-6.83-0.05-7.45-0.05-7.9L-0.05-7.9Q-0.05-8.25 0.25-8.25L0.25-8.25Q0.5-8.25 0.7-8.1L0.7-8.1Q1.7-7.65 3.15-7.65L3.15-7.65Q3.75-8.55 5.13-10.33 6.5-12.1 8.33-14.33 10.15-16.55 12.18-18.8 14.2-21.05 16.18-22.98 18.15-24.9 19.83-26.08 21.5-27.25 22.55-27.25L22.55-27.25Q23.55-27.25 24.33-26.65 25.1-26.05 25.58-25.45 26.05-24.85 26.05-24.85L26.05-24.85Q25.1-23.5 23.9-20.88 22.7-18.25 21.63-15.05 20.55-11.85 19.8-8.8L19.8-8.8Q20.55-8.8 21.18-8.15 21.8-7.5 21.8-6.8L21.8-6.8Q21.8-6.8 21.05-7.15 20.3-7.5 19.45-7.4L19.45-7.4Q19.3-6.85 19.07-5.73 18.85-4.6 18.65-3.33 18.45-2.05 18.45-1L18.45-1Q18.45-0.65 18.48-0.38 18.5-0.1 18.55 0.15L18.55 0.15Q17.45 0.4 16.98-0.7 16.5-1.8 16.5-3.35L16.5-3.35Q16.5-5.6 17.15-7.45L17.15-7.45Q12.3-7.25 9.43-6.65 6.55-6.05 5.4-5.6L5.4-5.6Q4.4-4.2 3.5-2.48 2.6-0.75 2.2 0.45ZM6.8-7.8L6.8-7.8Q8.45-8.1 10.58-8.38 12.7-8.65 14.6-8.85 16.5-9.05 17.55-9L17.55-9Q17.75-9.7 18.25-11.43 18.75-13.15 19.53-15.45 20.3-17.75 21.4-20.3 22.5-22.85 23.9-25.2L23.9-25.2Q23.75-25.45 23.4-25.45L23.4-25.45Q22.65-25.45 21.33-24.43 20-23.4 18.32-21.75 16.65-20.1 14.88-18.1 13.1-16.1 11.48-14.1 9.85-12.1 8.63-10.45 7.4-8.8 6.8-7.8ZM33.3 0.75L33.3 0.75Q31.05 0.75 29.35-0.08 27.65-0.9 26.45-2.02 25.25-3.15 24.42-4.03 23.6-4.9 23.15-4.95L23.15-4.95Q23.35-5.6 23.72-5.95 24.1-6.3 24.85-6.3L24.85-6.3Q25.8-6.3 26.47-5.65 27.15-5 28.15-3.85L28.15-3.85Q29.55-2.35 30.92-1.48 32.3-0.6 34.15-0.6L34.15-0.6Q35.3-0.6 36.37-1.28 37.45-1.95 37.45-3.2L37.45-3.2Q37.45-4.4 36.52-5.3 35.6-6.2 34.22-7.05 32.85-7.9 31.47-8.88 30.1-9.85 29.17-11.2 28.25-12.55 28.25-14.5L28.25-14.5Q28.25-17 29.42-19.23 30.6-21.45 32.5-23.15 34.4-24.85 36.65-25.8 38.9-26.75 41.05-26.75L41.05-26.75Q42.95-26.75 43.97-25.35 45-23.95 45-21.85L45-21.85Q45-20.95 44.47-19.95 43.95-18.95 43.22-17.9 42.5-16.85 41.97-15.78 41.45-14.7 41.45-13.65L41.45-13.65Q40.7-13.65 40.22-14.33 39.75-15 39.75-15.8L39.75-15.8Q39.75-16.95 40.27-17.93 40.8-18.9 41.5-19.8 42.2-20.7 42.72-21.6 43.25-22.5 43.25-23.55L43.25-23.55Q43.25-23.75 42.97-24.4 42.7-25.05 41.6-25.05L41.6-25.05Q40.1-25.05 38.3-24.05 36.5-23.05 34.85-21.48 33.2-19.9 32.15-18.13 31.1-16.35 31.1-14.85L31.1-14.85Q31.1-13.4 32-12.3 32.9-11.2 34.22-10.33 35.55-9.45 36.85-8.6 38.15-7.75 39.05-6.75 39.95-5.75 39.95-4.4L39.95-4.4Q39.95-2.65 39-1.5 38.05-0.35 36.55 0.2 35.05 0.75 33.3 0.75Z" opacity="1" transform="matrix(1,0,0,1,0,0)" fill="#ff0000" class="wordmark-text-0" data-fill-palette-color="primary" id="text-0"></path></svg></g></svg></g></svg></g></svg></g></svg></g></svg></g></svg></g></svg></g><defs></defs></svg><rect width="395.52" height="247.2" fill="none" stroke="none" visibility="hidden"></rect></g></svg></g></svg>